<?xml version="1.0" encoding="UTF-8"?> <svg xmlns="http://www.w3.org/2000/svg" width="156" height="96" viewBox="0 0 156 96" fill="none"> <path d="M92.0132 90.3393C83.5703 85.3579 71.6375 85.2083 63.0898 89.9725C57.1856 93.2637 50.502 95.1194 43.4227 95.1194C19.4411 95.1194 0 73.826 0 47.5597C0 21.2928 19.4411 0 43.4227 0C50.8627 0 57.8656 2.04943 63.9868 5.66095C72.4297 10.6424 84.3625 10.7917 92.9096 6.02734C98.8144 2.7362 105.498 0.88075 112.577 0.88075C136.559 0.88075 156 22.174 156 48.4403C156 74.7072 136.559 96 112.577 96C105.137 96 98.1344 93.9509 92.0132 90.3393Z" fill="#FF5D17"></path> </svg> 